<svg width="198" height="25" viewBox="0 0 198 25" fill="none" xmlns="http://www.w3.org/2000/svg">
<path d="M10.55 19.2099C10.55 20.1099 10.76 20.9199 11.18 21.6399C11.6 22.3799 12.19 22.9499 12.95 23.3499C13.73 23.7699 14.62 23.9799 15.62 23.9799L15.23 24.8799C13.75 24.8799 12.42 24.6399 11.24 24.1599C10.08 23.6799 9.17 23.0099 8.51 22.1499C7.85 21.2899 7.52 20.3099 7.52 19.2099C5.24 18.9099 3.47 17.9699 2.21 16.3899C0.97 14.7899 0.35 12.6699 0.35 10.0299C0.35 7.04994 1.11 4.76994 2.63 3.18994C4.17 1.58994 6.31 0.789937 9.05 0.789937C11.83 0.789937 13.97 1.59994 15.47 3.21994C16.99 4.83994 17.75 7.10994 17.75 10.0299C17.75 12.6899 17.12 14.8199 15.86 16.4199C14.62 17.9999 12.85 18.9299 10.55 19.2099ZM3.41 10.0299C3.41 13.0299 3.86 15.1899 4.76 16.5099C5.68 17.8299 7.11 18.4899 9.05 18.4899C10.99 18.4899 12.41 17.8299 13.31 16.5099C14.23 15.1899 14.69 13.0299 14.69 10.0299C14.69 7.04994 14.23 4.89994 13.31 3.57994C12.41 2.25994 10.99 1.59994 9.05 1.59994C7.11 1.59994 5.68 2.25994 4.76 3.57994C3.86 4.89994 3.41 7.04994 3.41 10.0299ZM20.5977 18.1299L21.7677 18.1899C22.1477 18.1899 22.3377 17.9699 22.3377 17.5299V2.55994C22.3377 2.37994 22.2877 2.22994 22.1877 2.10994C22.0877 1.96994 21.9477 1.90994 21.7677 1.92994L20.5977 1.98994V1.08994H26.8977V1.98994L25.7277 1.92994H25.6677C25.5077 1.92994 25.3777 1.98994 25.2777 2.10994C25.1777 2.22994 25.1277 2.37994 25.1277 2.55994V17.5299C25.1277 17.9699 25.3277 18.1899 25.7277 18.1899L26.8977 18.1299V18.9999H20.5977V18.1299ZM36.3266 10.1499C36.3266 7.20994 37.1166 4.91994 38.6966 3.27994C40.2966 1.61994 42.5066 0.789937 45.3266 0.789937C46.0666 0.789937 46.6766 0.849938 47.1566 0.969939C47.6566 1.08994 48.2666 1.26994 48.9866 1.50994C49.4866 1.68994 49.9166 1.82994 50.2766 1.92994C50.6566 2.02994 51.0866 2.07994 51.5666 2.07994C51.4866 2.69994 51.4466 3.44994 51.4466 4.32994C51.4466 4.74994 51.4566 5.12994 51.4766 5.46994C51.4966 5.78994 51.5266 5.96994 51.5666 6.00994H50.8466C50.6666 5.18994 50.2966 4.43994 49.7366 3.75994C49.1766 3.07994 48.4966 2.53994 47.6966 2.13994C46.8966 1.73994 46.0566 1.53994 45.1766 1.53994C43.9966 1.53994 42.9666 1.89994 42.0866 2.61994C41.2266 3.31994 40.5566 4.31994 40.0766 5.61994C39.6166 6.91994 39.3866 8.42994 39.3866 10.1499C39.3866 11.7699 39.6266 13.2199 40.1066 14.4999C40.6066 15.7599 41.3066 16.7399 42.2066 17.4399C43.1066 18.1399 44.1466 18.4899 45.3266 18.4899C46.7066 18.4899 47.9266 18.0699 48.9866 17.2299C50.0466 16.3699 50.7166 15.2899 50.9966 13.9899H51.8366C51.7166 14.9299 51.6566 15.7799 51.6566 16.5399C51.6566 17.1199 51.6866 17.5899 51.7466 17.9499H51.5666C51.2866 17.9499 50.9566 17.9999 50.5766 18.0999C50.1966 18.1799 49.8866 18.2599 49.6466 18.3399C49.4266 18.4199 49.2666 18.4699 49.1666 18.4899C48.4066 18.7499 47.7166 18.9499 47.0966 19.0899C46.4766 19.2299 45.8366 19.2999 45.1766 19.2999C43.3766 19.2999 41.8066 18.9299 40.4666 18.1899C39.1466 17.4499 38.1266 16.3999 37.4066 15.0399C36.6866 13.6599 36.3266 12.0299 36.3266 10.1499ZM54.5492 10.0299C54.5492 7.04994 55.3092 4.76994 56.8292 3.18994C58.3692 1.58994 60.5092 0.789937 63.2492 0.789937C66.0292 0.789937 68.1692 1.59994 69.6692 3.21994C71.1892 4.83994 71.9492 7.10994 71.9492 10.0299C71.9492 12.9699 71.1792 15.2499 69.6392 16.8699C68.1192 18.4899 65.9892 19.2999 63.2492 19.2999C60.5092 19.2999 58.3692 18.4899 56.8292 16.8699C55.3092 15.2499 54.5492 12.9699 54.5492 10.0299ZM57.6092 10.0299C57.6092 13.0299 58.0592 15.1899 58.9592 16.5099C59.8792 17.8299 61.3092 18.4899 63.2492 18.4899C65.1892 18.4899 66.6092 17.8299 67.5092 16.5099C68.4292 15.1899 68.8892 13.0299 68.8892 10.0299C68.8892 7.04994 68.4292 4.89994 67.5092 3.57994C66.6092 2.25994 65.1892 1.59994 63.2492 1.59994C61.3092 1.59994 59.8792 2.25994 58.9592 3.57994C58.0592 4.89994 57.6092 7.04994 57.6092 10.0299ZM74.7969 18.0999L76.0869 18.1899C76.3869 18.1899 76.5369 17.9699 76.5369 17.5299V2.55994C76.5369 2.37994 76.4769 2.22994 76.3569 2.10994C76.2569 1.96994 76.1269 1.90994 75.9669 1.92994L74.7969 1.98994V1.08994H81.3969V1.98994L79.9269 1.92994H79.8669C79.7069 1.92994 79.5769 1.98994 79.4769 2.10994C79.3769 2.22994 79.3269 2.37994 79.3269 2.55994V17.7699C79.3269 18.0299 79.4469 18.1599 79.6869 18.1599H83.0769C84.4569 18.1599 85.4969 17.7999 86.1969 17.0799C86.9169 16.3399 87.2769 15.2699 87.2769 13.8699H88.0569V19.0899C87.6969 19.0299 86.4569 18.9999 84.3369 18.9999H74.7969V18.0999ZM90.207 18.0999L91.497 18.1899C91.797 18.1899 91.947 17.9699 91.947 17.5299V2.55994C91.947 2.37994 91.887 2.22994 91.767 2.10994C91.667 1.96994 91.537 1.90994 91.377 1.92994L90.207 1.98994V1.08994H96.807V1.98994L95.337 1.92994H95.277C95.117 1.92994 94.987 1.98994 94.887 2.10994C94.787 2.22994 94.737 2.37994 94.737 2.55994V17.7699C94.737 18.0299 94.857 18.1599 95.097 18.1599H98.487C99.867 18.1599 100.907 17.7999 101.607 17.0799C102.327 16.3399 102.687 15.2699 102.687 13.8699H103.467V19.0899C103.107 19.0299 101.867 18.9999 99.747 18.9999H90.207V18.0999ZM105.617 18.0999L106.817 18.1899C107.177 18.1899 107.357 17.9699 107.357 17.5299V2.55994C107.357 2.37994 107.297 2.22994 107.177 2.10994C107.077 1.96994 106.937 1.90994 106.757 1.92994L105.617 1.98994V1.08994H118.277C118.557 1.08994 118.727 1.07994 118.787 1.05994V5.70994H117.977C117.977 4.36994 117.637 3.40994 116.957 2.82994C116.297 2.22994 115.217 1.92994 113.717 1.92994H110.507C110.267 1.92994 110.147 2.06994 110.147 2.34994V9.24994H112.967C113.647 9.24994 114.197 8.97994 114.617 8.43994C115.037 7.89994 115.247 7.15994 115.247 6.21994H116.057V13.1499H115.247C115.247 12.2699 115.017 11.5399 114.557 10.9599C114.117 10.3799 113.587 10.0899 112.967 10.0899H110.147V17.7699C110.147 18.0299 110.267 18.1599 110.507 18.1599H114.707C116.067 18.1599 117.097 17.7699 117.797 16.9899C118.517 16.2099 118.877 15.0899 118.877 13.6299H119.687V19.0899C119.247 19.0299 118.367 18.9999 117.047 18.9999H105.617V18.0999ZM122.371 10.1499C122.371 7.20994 123.161 4.91994 124.741 3.27994C126.341 1.61994 128.551 0.789937 131.371 0.789937C132.111 0.789937 132.721 0.849938 133.201 0.969939C133.701 1.08994 134.311 1.26994 135.031 1.50994C135.531 1.68994 135.961 1.82994 136.321 1.92994C136.701 2.02994 137.131 2.07994 137.611 2.07994C137.531 2.69994 137.491 3.44994 137.491 4.32994C137.491 4.74994 137.501 5.12994 137.521 5.46994C137.541 5.78994 137.571 5.96994 137.611 6.00994H136.891C136.711 5.18994 136.341 4.43994 135.781 3.75994C135.221 3.07994 134.541 2.53994 133.741 2.13994C132.941 1.73994 132.101 1.53994 131.221 1.53994C130.041 1.53994 129.011 1.89994 128.131 2.61994C127.271 3.31994 126.601 4.31994 126.121 5.61994C125.661 6.91994 125.431 8.42994 125.431 10.1499C125.431 11.7699 125.671 13.2199 126.151 14.4999C126.651 15.7599 127.351 16.7399 128.251 17.4399C129.151 18.1399 130.191 18.4899 131.371 18.4899C132.751 18.4899 133.971 18.0699 135.031 17.2299C136.091 16.3699 136.761 15.2899 137.041 13.9899H137.881C137.761 14.9299 137.701 15.7799 137.701 16.5399C137.701 17.1199 137.731 17.5899 137.791 17.9499H137.611C137.331 17.9499 137.001 17.9999 136.621 18.0999C136.241 18.1799 135.931 18.2599 135.691 18.3399C135.471 18.4199 135.311 18.4699 135.211 18.4899C134.451 18.7499 133.761 18.9499 133.141 19.0899C132.521 19.2299 131.881 19.2999 131.221 19.2999C129.421 19.2999 127.851 18.9299 126.511 18.1899C125.191 17.4499 124.171 16.3999 123.451 15.0399C122.731 13.6599 122.371 12.0299 122.371 10.1499ZM139.694 0.999938C139.974 1.03994 140.374 1.05994 140.894 1.05994H153.464C154.104 1.05994 154.504 1.03994 154.664 0.999938V5.67994H153.884C153.884 4.37994 153.594 3.42994 153.014 2.82994C152.454 2.20994 151.514 1.89994 150.194 1.89994H148.934C148.734 1.89994 148.614 2.00994 148.574 2.22994V17.5299C148.574 17.9699 148.774 18.1899 149.174 18.1899L150.764 18.1299V18.9999H143.594V18.1299L145.214 18.1899C145.394 18.1899 145.534 18.1199 145.634 17.9799C145.734 17.8199 145.784 17.6399 145.784 17.4399V2.25994C145.784 2.01994 145.664 1.89994 145.424 1.89994H144.194C142.874 1.89994 141.924 2.20994 141.344 2.82994C140.764 3.42994 140.474 4.37994 140.474 5.67994H139.694V0.999938ZM156.623 18.1299L157.793 18.1899C158.173 18.1899 158.363 17.9699 158.363 17.5299V2.55994C158.363 2.37994 158.313 2.22994 158.213 2.10994C158.113 1.96994 157.973 1.90994 157.793 1.92994L156.623 1.98994V1.08994H162.923V1.98994L161.753 1.92994H161.693C161.533 1.92994 161.403 1.98994 161.303 2.10994C161.203 2.22994 161.153 2.37994 161.153 2.55994V17.5299C161.153 17.9699 161.353 18.1899 161.753 18.1899L162.923 18.1299V18.9999H156.623V18.1299ZM182.53 1.08994V1.98994L181.45 1.92994C181.29 1.90994 181.17 1.94994 181.09 2.04994C181.03 2.14994 180.94 2.33994 180.82 2.61994L173.68 19.1199H172.9L165.79 2.61994C165.57 2.15994 165.34 1.92994 165.1 1.92994L164.26 1.98994V1.08994H170.71V1.98994L169.12 1.92994C169.02 1.92994 168.94 1.97994 168.88 2.07994C168.82 2.15994 168.79 2.25994 168.79 2.37994C168.79 2.43994 168.81 2.52994 168.85 2.64994L174.28 15.1299L179.5 2.97994C179.64 2.61994 179.71 2.37994 179.71 2.25994C179.71 2.03994 179.59 1.92994 179.35 1.92994L177.82 1.98994V1.08994H182.53ZM183.43 18.0999L184.63 18.1899C184.99 18.1899 185.17 17.9699 185.17 17.5299V2.55994C185.17 2.37994 185.11 2.22994 184.99 2.10994C184.89 1.96994 184.75 1.90994 184.57 1.92994L183.43 1.98994V1.08994H196.09C196.37 1.08994 196.54 1.07994 196.6 1.05994V5.70994H195.79C195.79 4.36994 195.45 3.40994 194.77 2.82994C194.11 2.22994 193.03 1.92994 191.53 1.92994H188.32C188.08 1.92994 187.96 2.06994 187.96 2.34994V9.24994H190.78C191.46 9.24994 192.01 8.97994 192.43 8.43994C192.85 7.89994 193.06 7.15994 193.06 6.21994H193.87V13.1499H193.06C193.06 12.2699 192.83 11.5399 192.37 10.9599C191.93 10.3799 191.4 10.0899 190.78 10.0899H187.96V17.7699C187.96 18.0299 188.08 18.1599 188.32 18.1599H192.52C193.88 18.1599 194.91 17.7699 195.61 16.9899C196.33 16.2099 196.69 15.0899 196.69 13.6299H197.5V19.0899C197.06 19.0299 196.18 18.9999 194.86 18.9999H183.43V18.0999Z" fill="#121524"/>
</svg>
