<?xml version="1.0" encoding="UTF-8"?>
<svg width="30px" height="30px" viewBox="0 0 30 30" version="1.1" xmlns="http://www.w3.org/2000/svg" xmlns:xlink="http://www.w3.org/1999/xlink">
    <!-- Generator: Sketch 52.6 (67491) - http://www.bohemiancoding.com/sketch -->
    <title>pinterest</title>
    <desc>Created with Sketch.</desc>
    <g id="Page-1" stroke="none" stroke-width="1" fill="none" fill-rule="evenodd">
        <g id="pinterest" fill="#FFFFFF">
            <path d="M15,0 C6.716,0 0,6.716 0,15 C0,21.355 3.954,26.782 9.534,28.968 C9.402,27.781 9.284,25.961 9.586,24.665 C9.858,23.494 11.345,17.209 11.345,17.209 C11.345,17.209 10.896,16.31 10.896,14.982 C10.896,12.896 12.105,11.339 13.61,11.339 C14.89,11.339 15.508,12.3 15.508,13.452 C15.508,14.739 14.689,16.663 14.266,18.446 C13.912,19.94 15.014,21.157 16.487,21.157 C19.153,21.157 21.202,18.346 21.202,14.288 C21.202,10.697 18.622,8.186 14.937,8.186 C10.669,8.186 8.164,11.387 8.164,14.695 C8.164,15.984 8.66,17.367 9.28,18.118 C9.402,18.267 9.42,18.397 9.384,18.548 C9.27,19.022 9.017,20.041 8.967,20.25 C8.902,20.524 8.75,20.582 8.466,20.45 C6.592,19.578 5.421,16.839 5.421,14.639 C5.421,9.908 8.859,5.562 15.332,5.562 C20.535,5.562 24.579,9.27 24.579,14.225 C24.579,19.395 21.32,23.555 16.796,23.555 C15.276,23.555 13.847,22.766 13.358,21.833 C13.358,21.833 12.605,24.697 12.423,25.399 C12.084,26.701 11.17,28.335 10.559,29.331 C11.962,29.765 13.454,30 15,30 C23.284,30 30,23.284 30,15 C30,6.716 23.284,0 15,0" id="sc-pinterest"></path>
        </g>
    </g>
</svg>