<svg width="123" height="107" viewBox="0 0 123 107" fill="none" xmlns="http://www.w3.org/2000/svg">
<mask id="path-1-inside-1" fill="white">
<path fill-rule="evenodd" clip-rule="evenodd" d="M36 20C41.5228 20 46 15.5228 46 10C46 4.47715 41.5228 0 36 0C30.4772 0 26 4.47715 26 10C26 13.2532 27.5534 16.1436 29.959 17.9698L14.0898 44.8718C14.7029 45.1469 15.2832 45.4819 15.8234 45.8695L31.665 19.0141C32.9764 19.6459 34.4469 20 36 20ZM36 18C40.4183 18 44 14.4183 44 10C44 5.58172 40.4183 2 36 2C31.5817 2 28 5.58172 28 10C28 14.4183 31.5817 18 36 18Z"/>
<path fill-rule="evenodd" clip-rule="evenodd" d="M77.0494 9H45.9508C45.9835 9.32891 46 9.6625 46 10C46 10.3375 45.9835 10.6711 45.9508 11L77.0494 11C77.5511 16.0533 81.8147 20 87 20C92.5229 20 97 15.5228 97 10C97 4.47715 92.5229 0 87 0C81.8147 0 77.5511 3.94668 77.0494 9ZM95 10C95 14.4183 91.4183 18 87 18C82.5817 18 79 14.4183 79 10C79 5.58172 82.5817 2 87 2C91.4183 2 95 5.58172 95 10Z"/>
<path fill-rule="evenodd" clip-rule="evenodd" d="M93.0413 17.9697C92.5115 18.3719 91.9403 18.7225 91.3353 19.014L107.177 45.8694C104.648 47.684 103 50.6496 103 54C103 57.1668 104.472 59.9897 106.769 61.822L91.3353 87.986C91.9403 88.2775 92.5115 88.6281 93.0413 89.0303L108.451 62.9077C109.815 63.606 111.362 64 113 64C118.523 64 123 59.5228 123 54C123 48.4772 118.523 44 113 44C111.543 44 110.159 44.3116 108.91 44.8717L93.0413 17.9697ZM113 62C117.418 62 121 58.4183 121 54C121 49.5817 117.418 46 113 46C108.582 46 105 49.5817 105 54C105 58.4183 108.582 62 113 62Z"/>
<path fill-rule="evenodd" clip-rule="evenodd" d="M77.0494 96H45.9508C45.9835 96.3289 46.0002 96.6625 46.0002 97C46.0002 97.3375 45.9835 97.6711 45.9508 98H77.0494C77.5511 103.053 81.8147 107 87 107C92.5229 107 97 102.523 97 97C97 91.4771 92.5229 87 87 87C81.8147 87 77.5511 90.9467 77.0494 96ZM95 97C95 101.418 91.4183 105 87 105C82.5817 105 79 101.418 79 97C79 92.5817 82.5817 89 87 89C91.4183 89 95 92.5817 95 97Z"/>
<path fill-rule="evenodd" clip-rule="evenodd" d="M16.2312 61.8219L31.665 87.9859C32.9764 87.3541 34.4469 87 36 87C41.5228 87 46.0002 91.4771 46.0002 97C46.0002 102.523 41.5228 107 36 107C30.4772 107 26 102.523 26 97C26 93.7468 27.5534 90.8564 29.959 89.0302L14.5496 62.9076C15.1475 62.6016 15.7105 62.2372 16.2312 61.8219ZM36 105C40.4183 105 44 101.418 44 97C44 92.5817 40.4183 89 36 89C31.5817 89 28 92.5817 28 97C28 101.418 31.5817 105 36 105Z"/>
<path fill-rule="evenodd" clip-rule="evenodd" d="M61.5 72C71.7173 72 80 63.7173 80 53.5C80 43.2827 71.7173 35 61.5 35C51.2827 35 43 43.2827 43 53.5C43 63.7173 51.2827 72 61.5 72ZM61.5 70C70.6127 70 78 62.6127 78 53.5C78 44.3873 70.6127 37 61.5 37C52.3873 37 45 44.3873 45 53.5C45 62.6127 52.3873 70 61.5 70Z"/>
<path fill-rule="evenodd" clip-rule="evenodd" d="M20 54C20 59.5228 15.5228 64 10 64C4.47715 64 0 59.5228 0 54C0 48.4772 4.47715 44 10 44C15.5228 44 20 48.4772 20 54ZM18 54C18 58.4183 14.4183 62 10 62C5.58172 62 2 58.4183 2 54C2 49.5817 5.58172 46 10 46C14.4183 46 18 49.5817 18 54Z"/>
</mask>
<path d="M29.959 17.9698L31.6816 18.9859L32.5859 17.453L31.1683 16.3768L29.959 17.9698ZM14.0898 44.8718L12.3672 43.8556L11.2313 45.7812L13.2711 46.6965L14.0898 44.8718ZM15.8234 45.8695L14.6575 47.4945L16.4347 48.7696L17.546 46.8856L15.8234 45.8695ZM31.665 19.0141L32.5331 17.2123L30.8766 16.4142L29.9424 17.9979L31.665 19.0141ZM77.0494 9V11H78.8606L79.0396 9.1976L77.0494 9ZM45.9508 9V7H43.7424L43.9606 9.19759L45.9508 9ZM45.9508 11L43.9606 10.8024L43.7424 13L45.9508 13L45.9508 11ZM77.0494 11L79.0396 10.8024L78.8606 9L77.0494 9L77.0494 11ZM93.0413 17.9697L94.7639 16.9535L93.622 15.0177L91.8319 16.3767L93.0413 17.9697ZM91.3353 19.014L90.4672 17.2123L88.5074 18.1565L89.6127 20.0302L91.3353 19.014ZM107.177 45.8694L108.343 47.4944L109.829 46.4283L108.9 44.8532L107.177 45.8694ZM106.769 61.822L108.492 62.8381L109.374 61.3418L108.016 60.2584L106.769 61.822ZM91.3353 87.986L89.6127 86.9698L88.5074 88.8435L90.4672 89.7877L91.3353 87.986ZM93.0413 89.0303L91.8319 90.6233L93.622 91.9823L94.7639 90.0465L93.0413 89.0303ZM108.451 62.9077L109.362 61.1272L107.685 60.2692L106.728 61.8915L108.451 62.9077ZM108.91 44.8717L107.188 45.8879L108.097 47.4289L109.729 46.6965L108.91 44.8717ZM77.0494 96V98H78.8606L79.0396 96.1976L77.0494 96ZM45.9508 96V94H43.7424L43.9606 96.1976L45.9508 96ZM45.9508 98L43.9606 97.8024L43.7424 100H45.9508V98ZM77.0494 98L79.0396 97.8024L78.8606 96H77.0494V98ZM16.2312 61.8219L17.9538 60.8057L16.784 58.8226L14.984 60.2584L16.2312 61.8219ZM31.665 87.9859L29.9424 89.0021L30.8766 90.5858L32.5331 89.7877L31.665 87.9859ZM29.959 89.0302L31.1683 90.6232L32.5859 89.547L31.6816 88.0141L29.959 89.0302ZM14.5496 62.9076L13.6385 61.1272L11.748 62.0946L12.827 63.9237L14.5496 62.9076ZM36 22C42.6274 22 48 16.6274 48 10H44C44 14.4183 40.4183 18 36 18V22ZM48 10C48 3.37258 42.6274 -2 36 -2V2C40.4183 2 44 5.58172 44 10H48ZM36 -2C29.3726 -2 24 3.37258 24 10H28C28 5.58172 31.5817 2 36 2V-2ZM24 10C24 13.9051 25.8675 17.3747 28.7497 19.5627L31.1683 16.3768C29.2394 14.9125 28 12.6013 28 10H24ZM28.2364 16.9536L12.3672 43.8556L15.8125 45.8879L31.6816 18.9859L28.2364 16.9536ZM13.2711 46.6965C13.7608 46.9163 14.225 47.1842 14.6575 47.4945L16.9893 44.2445C16.3415 43.7797 15.645 43.3775 14.9086 43.0471L13.2711 46.6965ZM17.546 46.8856L33.3876 20.0303L29.9424 17.9979L14.1007 44.8533L17.546 46.8856ZM30.7969 20.8159C32.3733 21.5754 34.1399 22 36 22V18C34.7539 18 33.5796 17.7165 32.5331 17.2123L30.7969 20.8159ZM36 20C41.5228 20 46 15.5228 46 10H42C42 13.3137 39.3137 16 36 16V20ZM46 10C46 4.47715 41.5228 0 36 0V4C39.3137 4 42 6.68629 42 10H46ZM36 0C30.4772 0 26 4.47715 26 10H30C30 6.68629 32.6863 4 36 4V0ZM26 10C26 15.5228 30.4772 20 36 20V16C32.6863 16 30 13.3137 30 10H26ZM77.0494 7H45.9508V11H77.0494V7ZM43.9606 9.19759C43.9867 9.46026 44 9.72791 44 10H48C48 9.59709 47.9802 9.19755 47.941 8.80241L43.9606 9.19759ZM44 10C44 10.2721 43.9867 10.5397 43.9606 10.8024L47.941 11.1976C47.9802 10.8025 48 10.4029 48 10H44ZM45.9508 13L77.0494 13L77.0494 9L45.9508 9L45.9508 13ZM75.0592 11.1976C75.6614 17.2637 80.7764 22 87 22V18C82.8529 18 79.4408 14.8429 79.0396 10.8024L75.0592 11.1976ZM87 22C93.6274 22 99 16.6274 99 10H95C95 14.4183 91.4183 18 87 18V22ZM99 10C99 3.37258 93.6274 -2 87 -2V2C91.4183 2 95 5.58172 95 10H99ZM87 -2C80.7764 -2 75.6614 2.73628 75.0592 8.8024L79.0396 9.1976C79.4408 5.15708 82.8529 2 87 2V-2ZM93 10C93 13.3137 90.3137 16 87 16V20C92.5228 20 97 15.5228 97 10H93ZM87 16C83.6863 16 81 13.3137 81 10H77C77 15.5228 81.4771 20 87 20V16ZM81 10C81 6.68629 83.6863 4 87 4V0C81.4771 0 77 4.47715 77 10H81ZM87 4C90.3137 4 93 6.68629 93 10H97C97 4.47715 92.5228 0 87 0V4ZM91.8319 16.3767C91.4076 16.6989 90.9507 16.9793 90.4672 17.2123L92.2034 20.8158C92.9299 20.4658 93.6153 20.045 94.2506 19.5626L91.8319 16.3767ZM89.6127 20.0302L105.454 46.8855L108.9 44.8532L93.0579 17.9979L89.6127 20.0302ZM106.011 44.2444C102.981 46.4185 101 49.978 101 54H105C105 51.3212 106.315 48.9495 108.343 47.4944L106.011 44.2444ZM101 54C101 57.801 102.77 61.1901 105.522 63.3855L108.016 60.2584C106.174 58.7894 105 56.5325 105 54H101ZM105.046 60.8058L89.6127 86.9698L93.0579 89.0021L108.492 62.8381L105.046 60.8058ZM90.4672 89.7877C90.9507 90.0207 91.4076 90.3011 91.8319 90.6233L94.2506 87.4374C93.6153 86.955 92.9299 86.5342 92.2034 86.1842L90.4672 89.7877ZM94.7639 90.0465L110.173 63.9238L106.728 61.8915L91.3187 88.0142L94.7639 90.0465ZM107.54 64.6881C109.18 65.5274 111.038 66 113 66V62C111.686 62 110.451 61.6846 109.362 61.1272L107.54 64.6881ZM113 66C119.627 66 125 60.6274 125 54H121C121 58.4183 117.418 62 113 62V66ZM125 54C125 47.3726 119.627 42 113 42V46C117.418 46 121 49.5817 121 54H125ZM113 42C111.255 42 109.593 42.3736 108.092 43.047L109.729 46.6965C110.725 46.2496 111.831 46 113 46V42ZM110.633 43.8556L94.7639 16.9535L91.3187 18.9858L107.188 45.8879L110.633 43.8556ZM113 64C118.523 64 123 59.5228 123 54H119C119 57.3137 116.314 60 113 60V64ZM123 54C123 48.4772 118.523 44 113 44V48C116.314 48 119 50.6863 119 54H123ZM113 44C107.477 44 103 48.4772 103 54H107C107 50.6863 109.686 48 113 48V44ZM103 54C103 59.5228 107.477 64 113 64V60C109.686 60 107 57.3137 107 54H103ZM77.0494 94H45.9508V98H77.0494V94ZM43.9606 96.1976C43.9867 96.461 44.0002 96.7286 44.0002 97H48.0002C48.0002 96.5964 47.9802 96.1968 47.941 95.8024L43.9606 96.1976ZM44.0002 97C44.0002 97.2714 43.9867 97.539 43.9606 97.8024L47.941 98.1976C47.9802 97.8032 48.0002 97.4036 48.0002 97H44.0002ZM45.9508 100H77.0494V96H45.9508V100ZM75.0592 98.1976C75.6614 104.264 80.7764 109 87 109V105C82.8529 105 79.4408 101.843 79.0396 97.8024L75.0592 98.1976ZM87 109C93.6274 109 99 103.627 99 97H95C95 101.418 91.4183 105 87 105V109ZM99 97C99 90.3726 93.6274 85 87 85V89C91.4183 89 95 92.5817 95 97H99ZM87 85C80.7764 85 75.6614 89.7363 75.0592 95.8024L79.0396 96.1976C79.4408 92.1571 82.8529 89 87 89V85ZM93 97C93 100.314 90.3137 103 87 103V107C92.5228 107 97 102.523 97 97H93ZM87 103C83.6863 103 81 100.314 81 97H77C77 102.523 81.4771 107 87 107V103ZM81 97C81 93.6863 83.6863 91 87 91V87C81.4771 87 77 91.4771 77 97H81ZM87 91C90.3137 91 93 93.6863 93 97H97C97 91.4771 92.5228 87 87 87V91ZM14.5086 62.838L29.9424 89.0021L33.3876 86.9697L17.9538 60.8057L14.5086 62.838ZM32.5331 89.7877C33.5796 89.2835 34.7539 89 36 89V85C34.1399 85 32.3733 85.4246 30.7969 86.1841L32.5331 89.7877ZM36 89C40.4183 89 44.0002 92.5818 44.0002 97H48.0002C48.0002 90.3725 42.6274 85 36 85V89ZM44.0002 97C44.0002 101.418 40.4183 105 36 105V109C42.6274 109 48.0002 103.627 48.0002 97H44.0002ZM36 105C31.5817 105 28 101.418 28 97H24C24 103.627 29.3726 109 36 109V105ZM28 97C28 94.3987 29.2394 92.0875 31.1683 90.6232L28.7497 87.4373C25.8675 89.6253 24 93.0949 24 97H28ZM31.6816 88.0141L16.2722 61.8914L12.827 63.9237L28.2364 90.0464L31.6816 88.0141ZM15.4607 64.688C16.1786 64.3206 16.8541 63.8834 17.4784 63.3854L14.984 60.2584C14.567 60.591 14.1164 60.8826 13.6385 61.1272L15.4607 64.688ZM36 107C41.5228 107 46 102.523 46 97H42C42 100.314 39.3137 103 36 103V107ZM46 97C46 91.4771 41.5228 87 36 87V91C39.3137 91 42 93.6863 42 97H46ZM36 87C30.4772 87 26 91.4771 26 97H30C30 93.6863 32.6863 91 36 91V87ZM26 97C26 102.523 30.4772 107 36 107V103C32.6863 103 30 100.314 30 97H26ZM61.5 74C72.8218 74 82 64.8218 82 53.5H78C78 62.6127 70.6127 70 61.5 70V74ZM82 53.5C82 42.1782 72.8218 33 61.5 33V37C70.6127 37 78 44.3873 78 53.5H82ZM61.5 33C50.1782 33 41 42.1782 41 53.5H45C45 44.3873 52.3873 37 61.5 37V33ZM41 53.5C41 64.8218 50.1782 74 61.5 74V70C52.3873 70 45 62.6127 45 53.5H41ZM61.5 72C71.7173 72 80 63.7173 80 53.5H76C76 61.5081 69.5081 68 61.5 68V72ZM80 53.5C80 43.2827 71.7173 35 61.5 35V39C69.5081 39 76 45.4919 76 53.5H80ZM61.5 35C51.2827 35 43 43.2827 43 53.5H47C47 45.4919 53.4919 39 61.5 39V35ZM43 53.5C43 63.7173 51.2827 72 61.5 72V68C53.4919 68 47 61.5081 47 53.5H43ZM18 54C18 58.4183 14.4183 62 10 62V66C16.6274 66 22 60.6274 22 54H18ZM10 62C5.58172 62 2 58.4183 2 54H-2C-2 60.6274 3.37258 66 10 66V62ZM2 54C2 49.5817 5.58172 46 10 46V42C3.37258 42 -2 47.3726 -2 54H2ZM10 46C14.4183 46 18 49.5817 18 54H22C22 47.3726 16.6274 42 10 42V46ZM16 54C16 57.3137 13.3137 60 10 60V64C15.5228 64 20 59.5228 20 54H16ZM10 60C6.68629 60 4 57.3137 4 54H0C0 59.5228 4.47715 64 10 64V60ZM4 54C4 50.6863 6.68629 48 10 48V44C4.47715 44 0 48.4772 0 54H4ZM10 48C13.3137 48 16 50.6863 16 54H20C20 48.4772 15.5228 44 10 44V48Z" fill="#121524" mask="url(#path-1-inside-1)"/>
</svg>
