<svg width="170" height="54" viewBox="0 0 170 54" fill="none" xmlns="http://www.w3.org/2000/svg">
<mask id="path-1-inside-1" fill="white">
<path fill-rule="evenodd" clip-rule="evenodd" d="M116 0H170V54H116V28H107V46H69V28H39.9754C39.4544 38.5811 30.7104 47 20 47C8.9543 47 0 38.0457 0 27C0 15.9543 8.9543 7 20 7C30.7104 7 39.4544 15.4189 39.9754 26H69V8H107V26H116V0ZM118 2H168V52H118V2ZM38 27C38 17.0589 29.9411 9 20 9C10.0589 9 2 17.0589 2 27C2 36.9411 10.0589 45 20 45C29.9411 45 38 36.9411 38 27ZM71 10H105V44H71V10Z"/>
</mask>
<path d="M118 2V0H116V2H118ZM168 2H170V0H168V2ZM168 52V54H170V52H168ZM118 52H116V54H118V52ZM116 0V-2H114V0H116ZM170 0H172V-2H170V0ZM170 54V56H172V54H170ZM116 54H114V56H116V54ZM116 28H118V26H116V28ZM107 28V26H105V28H107ZM107 46V48H109V46H107ZM69 46H67V48H69V46ZM69 28H71V26H69V28ZM39.9754 28V26H38.0715L37.9779 27.9016L39.9754 28ZM39.9754 26L37.9779 26.0984L38.0715 28H39.9754V26ZM69 26V28H71V26H69ZM69 8V6H67V8H69ZM107 8H109V6H107V8ZM107 26H105V28H107V26ZM116 26V28H118V26H116ZM71 10V8H69V10H71ZM105 10H107V8H105V10ZM105 44V46H107V44H105ZM71 44H69V46H71V44ZM118 4H168V0H118V4ZM166 2V52H170V2H166ZM168 50H118V54H168V50ZM120 52V2H116V52H120ZM116 26H107V30H116V26ZM69 26H39.9754V30H69V26ZM37.9779 27.9016C37.509 37.423 29.6387 45 20 45V49C31.782 49 41.3998 39.7392 41.973 28.0984L37.9779 27.9016ZM20 45C10.0589 45 2 36.9411 2 27H-2C-2 39.1503 7.84974 49 20 49V45ZM2 27C2 17.0589 10.0589 9 20 9V5C7.84974 5 -2 14.8497 -2 27H2ZM20 9C29.6387 9 37.509 16.577 37.9779 26.0984L41.973 25.9016C41.3998 14.2608 31.782 5 20 5V9ZM39.9754 28H69V24H39.9754V28ZM107 28H116V24H107V28ZM40 27C40 15.9543 31.0457 7 20 7V11C28.8366 11 36 18.1634 36 27H40ZM20 7C8.9543 7 0 15.9543 0 27H4C4 18.1634 11.1634 11 20 11V7ZM0 27C0 38.0457 8.9543 47 20 47V43C11.1634 43 4 35.8366 4 27H0ZM20 47C31.0457 47 40 38.0457 40 27H36C36 35.8366 28.8366 43 20 43V47ZM71 12H105V8H71V12ZM103 10V44H107V10H103ZM105 42H71V46H105V42ZM73 44V10H69V44H73ZM116 2H170V-2H116V2ZM168 0V54H172V0H168ZM170 52H116V56H170V52ZM118 54V28H114V54H118ZM105 28V46H109V28H105ZM107 44H69V48H107V44ZM71 46V28H67V46H71ZM71 26V8H67V26H71ZM69 10H107V6H69V10ZM105 8V26H109V8H105ZM118 26V0H114V26H118Z" fill="#121524" mask="url(#path-1-inside-1)"/>
</svg>
