<svg width="170" height="63" viewBox="0 0 170 63" fill="none" xmlns="http://www.w3.org/2000/svg">
<mask id="path-1-inside-1" fill="white">
<path fill-rule="evenodd" clip-rule="evenodd" d="M40.3896 17.7877L58.4481 0L78.5726 19.8229L98.4147 0.278147L118.288 19.8538L138.162 0.278147L170 31.6391L138.162 63L118.288 43.4243L98.4147 63L78.0707 42.9609L58.4481 62.2894L40.3901 44.5021C36.2953 49.9002 29.7799 53.3914 22.4419 53.3914C10.0476 53.3914 0 43.4314 0 31.1452C0 18.8589 10.0476 8.89897 22.4419 8.89897C29.7796 8.89897 36.2949 12.3899 40.3896 17.7877ZM41.5345 19.4477L58.4481 2.78764L77.1576 21.2167L66.5766 31.6391L76.6557 41.5671L58.4481 59.5018L41.5349 42.8421C43.6581 39.4437 44.8837 35.4363 44.8837 31.1452C44.8837 26.8538 43.6579 22.8462 41.5345 19.4477ZM38.9601 43.0936C35.2408 48.1375 29.2273 51.414 22.4419 51.414C11.1493 51.414 1.99483 42.3393 1.99483 31.1452C1.99483 19.9511 11.1493 10.8764 22.4419 10.8764C29.2271 10.8764 35.2404 14.1526 38.9597 19.1962L26.8294 31.1447L38.9601 43.0936ZM40.0783 41.4073L29.6595 31.1447L40.0779 20.8824C41.8643 23.8925 42.8889 27.4003 42.8889 31.1452C42.8889 34.8899 41.8645 38.3974 40.0783 41.4073ZM98.4147 3.06578L116.873 21.2477L106.324 31.6391L116.873 42.0305L98.4147 60.2124L79.4857 41.5671L90.0667 31.1447L79.9876 21.2167L98.4147 3.06578ZM109.154 31.6391L118.288 40.6367L127.423 31.6391L118.288 22.6415L109.154 31.6391ZM119.703 42.0305L138.162 60.2124L167.17 31.6391L138.162 3.06578L119.703 21.2477L130.253 31.6391L119.703 42.0305ZM78.5726 22.6105L87.2366 31.1447L78.0707 40.1733L69.4066 31.6391L78.5726 22.6105Z"/>
</mask>
<path d="M40.3896 17.7877L38.7962 18.9965L40.1717 20.8097L41.7931 19.2126L40.3896 17.7877ZM58.4481 0L59.8516 -1.42485L58.4481 -2.80731L57.0446 -1.42485L58.4481 0ZM78.5726 19.8229L77.1691 21.2477L78.5726 22.6302L79.9761 21.2477L78.5726 19.8229ZM98.4147 0.278147L99.8182 -1.1467L98.4147 -2.52916L97.0112 -1.1467L98.4147 0.278147ZM118.288 19.8538L116.885 21.2787L118.288 22.6611L119.692 21.2787L118.288 19.8538ZM138.162 0.278147L139.565 -1.1467L138.162 -2.52916L136.758 -1.1467L138.162 0.278147ZM170 31.6391L171.403 33.0639L172.85 31.6391L171.403 30.2142L170 31.6391ZM138.162 63L136.758 64.4249L138.162 65.8073L139.565 64.4249L138.162 63ZM118.288 43.4243L119.692 41.9995L118.288 40.617L116.885 41.9995L118.288 43.4243ZM98.4147 63L97.0112 64.4249L98.4147 65.8073L99.8182 64.4249L98.4147 63ZM78.0707 42.9609L79.4742 41.5361L78.0707 40.1536L76.6672 41.5361L78.0707 42.9609ZM58.4481 62.2894L57.0446 63.7143L58.4481 65.0967L59.8516 63.7143L58.4481 62.2894ZM40.3901 44.5021L41.7936 43.0772L40.1721 41.4801L38.7966 43.2934L40.3901 44.5021ZM41.5345 19.4477L40.131 18.0229L38.9888 19.1479L39.8384 20.5075L41.5345 19.4477ZM58.4481 2.78764L59.8516 1.36279L58.4481 -0.0196725L57.0446 1.36279L58.4481 2.78764ZM77.1576 21.2167L78.561 22.6415L80.0076 21.2167L78.561 19.7918L77.1576 21.2167ZM66.5766 31.6391L65.1731 30.2142L63.7265 31.6391L65.1731 33.0639L66.5766 31.6391ZM76.6557 41.5671L78.0592 42.9919L79.5057 41.5671L78.0592 40.1422L76.6557 41.5671ZM58.4481 59.5018L57.0446 60.9266L58.4481 62.3091L59.8516 60.9266L58.4481 59.5018ZM41.5349 42.8421L39.8387 41.7824L38.9893 43.142L40.1314 44.2669L41.5349 42.8421ZM38.9601 43.0936L40.5698 44.2805L41.5987 42.8853L40.3636 41.6687L38.9601 43.0936ZM38.9597 19.1962L40.3632 20.6211L41.5983 19.4045L40.5694 18.0092L38.9597 19.1962ZM26.8294 31.1447L25.4259 29.7199L23.9794 31.1447L25.4259 32.5696L26.8294 31.1447ZM40.0783 41.4073L38.6748 42.8322L40.4946 44.6247L41.7982 42.428L40.0783 41.4073ZM29.6595 31.1447L28.256 29.7199L26.8095 31.1447L28.256 32.5696L29.6595 31.1447ZM40.0779 20.8824L41.7978 19.8617L40.4942 17.6651L38.6744 19.4576L40.0779 20.8824ZM98.4147 3.06578L99.8182 1.64093L98.4147 0.258475L97.0112 1.64093L98.4147 3.06578ZM116.873 21.2477L118.277 22.6725L119.723 21.2477L118.277 19.8228L116.873 21.2477ZM106.324 31.6391L104.92 30.2142L103.474 31.6391L104.92 33.0639L106.324 31.6391ZM116.873 42.0305L118.277 43.4553L119.723 42.0305L118.277 40.6056L116.873 42.0305ZM98.4147 60.2124L97.0112 61.6372L98.4147 63.0197L99.8182 61.6372L98.4147 60.2124ZM79.4857 41.5671L78.0822 40.1422L76.6357 41.5671L78.0822 42.9919L79.4857 41.5671ZM90.0667 31.1447L91.4702 32.5696L92.9167 31.1447L91.4702 29.7199L90.0667 31.1447ZM79.9876 21.2167L78.5841 19.7918L77.1376 21.2167L78.5841 22.6415L79.9876 21.2167ZM109.154 31.6391L107.75 30.2142L106.304 31.6391L107.75 33.0639L109.154 31.6391ZM118.288 40.6367L116.885 42.0615L118.288 43.444L119.692 42.0615L118.288 40.6367ZM127.423 31.6391L128.826 33.0639L130.273 31.6391L128.826 30.2142L127.423 31.6391ZM118.288 22.6415L119.692 21.2166L118.288 19.8342L116.885 21.2166L118.288 22.6415ZM119.703 42.0305L118.3 40.6056L116.853 42.0305L118.3 43.4553L119.703 42.0305ZM138.162 60.2124L136.758 61.6372L138.162 63.0197L139.565 61.6372L138.162 60.2124ZM167.17 31.6391L168.573 33.0639L170.02 31.6391L168.573 30.2142L167.17 31.6391ZM138.162 3.06578L139.565 1.64093L138.162 0.258475L136.758 1.64093L138.162 3.06578ZM119.703 21.2477L118.3 19.8228L116.853 21.2477L118.3 22.6725L119.703 21.2477ZM130.253 31.6391L131.656 33.0639L133.103 31.6391L131.656 30.2142L130.253 31.6391ZM78.5726 22.6105L79.9761 21.1857L78.5726 19.8032L77.1691 21.1857L78.5726 22.6105ZM87.2366 31.1447L88.6401 32.5696L90.0867 31.1447L88.6401 29.7199L87.2366 31.1447ZM78.0707 40.1733L76.6672 41.5981L78.0707 42.9806L79.4742 41.5981L78.0707 40.1733ZM69.4066 31.6391L68.0031 30.2142L66.5566 31.6391L68.0031 33.0639L69.4066 31.6391ZM41.7931 19.2126L59.8516 1.42485L57.0446 -1.42485L38.9861 16.3629L41.7931 19.2126ZM57.0446 1.42485L77.1691 21.2477L79.9761 18.398L59.8516 -1.42485L57.0446 1.42485ZM79.9761 21.2477L99.8182 1.703L97.0112 -1.1467L77.1691 18.398L79.9761 21.2477ZM97.0112 1.703L116.885 21.2787L119.692 18.429L99.8182 -1.1467L97.0112 1.703ZM119.692 21.2787L139.565 1.703L136.758 -1.1467L116.885 18.429L119.692 21.2787ZM136.758 1.703L168.597 33.0639L171.403 30.2142L139.565 -1.1467L136.758 1.703ZM168.597 30.2142L136.758 61.5751L139.565 64.4249L171.403 33.0639L168.597 30.2142ZM139.565 61.5751L119.692 41.9995L116.885 44.8492L136.758 64.4249L139.565 61.5751ZM116.885 41.9995L97.0112 61.5751L99.8182 64.4249L119.692 44.8492L116.885 41.9995ZM99.8182 61.5751L79.4742 41.5361L76.6672 44.3858L97.0112 64.4249L99.8182 61.5751ZM76.6672 41.5361L57.0446 60.8646L59.8516 63.7143L79.4742 44.3858L76.6672 41.5361ZM59.8516 60.8646L41.7936 43.0772L38.9866 45.9269L57.0446 63.7143L59.8516 60.8646ZM38.7966 43.2934C35.0663 48.2112 29.1318 51.3914 22.4419 51.3914V55.3914C30.4279 55.3914 37.5244 51.5893 41.9835 45.7108L38.7966 43.2934ZM22.4419 51.3914C11.1356 51.3914 2 42.3104 2 31.1452H-2C-2 44.5525 8.95955 55.3914 22.4419 55.3914V51.3914ZM2 31.1452C2 19.98 11.1356 10.899 22.4419 10.899V6.89897C8.95955 6.89897 -2 17.7379 -2 31.1452H2ZM22.4419 10.899C29.1316 10.899 35.0659 14.079 38.7962 18.9965L41.983 16.579C37.5239 10.7008 30.4277 6.89897 22.4419 6.89897V10.899ZM42.938 20.8726L59.8516 4.21249L57.0446 1.36279L40.131 18.0229L42.938 20.8726ZM57.0446 4.21249L75.7541 22.6415L78.561 19.7918L59.8516 1.36279L57.0446 4.21249ZM75.7541 19.7918L65.1731 30.2142L67.9801 33.0639L78.561 22.6415L75.7541 19.7918ZM65.1731 33.0639L75.2522 42.9919L78.0592 40.1422L67.9801 30.2142L65.1731 33.0639ZM75.2522 40.1422L57.0446 58.0769L59.8516 60.9266L78.0592 42.9919L75.2522 40.1422ZM59.8516 58.0769L42.9384 41.4172L40.1314 44.2669L57.0446 60.9266L59.8516 58.0769ZM43.231 43.9018C45.5465 40.1957 46.8837 35.8227 46.8837 31.1452H42.8837C42.8837 35.05 41.7696 38.6918 39.8387 41.7824L43.231 43.9018ZM46.8837 31.1452C46.8837 26.4674 45.5464 22.0942 43.2306 18.3879L39.8384 20.5075C41.7695 23.5982 42.8837 27.2402 42.8837 31.1452H46.8837ZM37.3504 41.9066C33.9945 46.4578 28.5695 49.414 22.4419 49.414V53.414C29.8852 53.414 36.4871 49.8173 40.5698 44.2805L37.3504 41.9066ZM22.4419 49.414C12.2373 49.414 3.99483 41.2183 3.99483 31.1452H-0.00516701C-0.00516701 43.4604 10.0613 53.414 22.4419 53.414V49.414ZM3.99483 31.1452C3.99483 21.0721 12.2373 12.8764 22.4419 12.8764V8.87641C10.0613 8.87641 -0.00516701 18.83 -0.00516701 31.1452H3.99483ZM22.4419 12.8764C28.5693 12.8764 33.9941 15.8324 37.3501 20.3833L40.5694 18.0092C36.4866 12.4728 29.8849 8.87641 22.4419 8.87641V12.8764ZM37.5562 17.7714L25.4259 29.7199L28.2329 32.5696L40.3632 20.6211L37.5562 17.7714ZM25.4259 32.5696L37.5566 44.5184L40.3636 41.6687L28.2329 29.7199L25.4259 32.5696ZM41.4818 39.9825L31.063 29.7199L28.256 32.5696L38.6748 42.8322L41.4818 39.9825ZM31.063 32.5696L41.4814 22.3073L38.6744 19.4576L28.256 29.7199L31.063 32.5696ZM38.358 21.9032C39.9666 24.6136 40.8889 27.77 40.8889 31.1452H44.8889C44.8889 27.0305 43.7621 23.1715 41.7978 19.8617L38.358 21.9032ZM40.8889 31.1452C40.8889 34.5201 39.9667 37.6764 38.3583 40.3867L41.7982 42.428C43.7623 39.1184 44.8889 35.2596 44.8889 31.1452H40.8889ZM97.0112 4.49064L115.47 22.6725L118.277 19.8228L99.8182 1.64093L97.0112 4.49064ZM115.47 19.8228L104.92 30.2142L107.727 33.0639L118.277 22.6725L115.47 19.8228ZM104.92 33.0639L115.47 43.4553L118.277 40.6056L107.727 30.2142L104.92 33.0639ZM115.47 40.6056L97.0112 58.7875L99.8182 61.6372L118.277 43.4553L115.47 40.6056ZM99.8182 58.7875L80.8892 40.1422L78.0822 42.9919L97.0112 61.6372L99.8182 58.7875ZM80.8892 42.9919L91.4702 32.5696L88.6632 29.7199L78.0822 40.1422L80.8892 42.9919ZM91.4702 29.7199L81.3911 19.7918L78.5841 22.6415L88.6632 32.5696L91.4702 29.7199ZM81.3911 22.6415L99.8182 4.49064L97.0112 1.64093L78.5841 19.7918L81.3911 22.6415ZM107.75 33.0639L116.885 42.0615L119.692 39.2118L110.557 30.2142L107.75 33.0639ZM119.692 42.0615L128.826 33.0639L126.019 30.2142L116.885 39.2118L119.692 42.0615ZM128.826 30.2142L119.692 21.2166L116.885 24.0663L126.019 33.0639L128.826 30.2142ZM116.885 21.2166L107.75 30.2142L110.557 33.0639L119.692 24.0663L116.885 21.2166ZM118.3 43.4553L136.758 61.6372L139.565 58.7875L121.107 40.6056L118.3 43.4553ZM139.565 61.6372L168.573 33.0639L165.766 30.2142L136.758 58.7875L139.565 61.6372ZM168.573 30.2142L139.565 1.64093L136.758 4.49064L165.766 33.0639L168.573 30.2142ZM136.758 1.64093L118.3 19.8228L121.107 22.6725L139.565 4.49064L136.758 1.64093ZM118.3 22.6725L128.849 33.0639L131.656 30.2142L121.107 19.8228L118.3 22.6725ZM128.849 30.2142L118.3 40.6056L121.107 43.4553L131.656 33.0639L128.849 30.2142ZM77.1691 24.0354L85.8332 32.5696L88.6401 29.7199L79.9761 21.1857L77.1691 24.0354ZM85.8332 29.7199L76.6672 38.7484L79.4742 41.5981L88.6401 32.5696L85.8332 29.7199ZM79.4742 38.7484L70.8101 30.2142L68.0031 33.0639L76.6672 41.5981L79.4742 38.7484ZM70.8101 33.0639L79.9761 24.0354L77.1691 21.1857L68.0031 30.2142L70.8101 33.0639Z" fill="#121524" mask="url(#path-1-inside-1)"/>
</svg>
