<svg width="139" height="114" viewBox="0 0 139 114" fill="none" xmlns="http://www.w3.org/2000/svg">
<mask id="path-1-inside-1" fill="white">
<path fill-rule="evenodd" clip-rule="evenodd" d="M70.0005 15C70.0005 22.9481 63.8188 29.4523 56.001 29.9672V64C64.0275 64 71.1705 67.7826 75.7447 73.6624L104.977 54.9216L100.955 47.9545L110.455 31.5H129.455L138.955 47.9545L129.455 64.409H110.455L105.979 56.6555L76.9103 75.2909C79.1526 78.7038 80.5817 82.6987 80.9221 87H112.224C113.133 82.992 116.717 80 121 80C125.971 80 130 84.0294 130 89C130 93.9706 125.971 98 121 98C116.03 98 112 93.9706 112 89H81.001C81.001 102.807 69.8081 114 56.001 114C42.1939 114 31.001 102.807 31.001 89C31.001 84.5876 32.1441 80.4421 34.1503 76.8437L21.0314 65H0.000488281V43H22.0005V63.1804L35.2127 75.1083C39.3494 68.9303 46.167 64.6989 54.001 64.0788V29.9672C46.1827 29.4529 40.0005 22.9484 40.0005 15C40.0005 6.71573 46.7162 0 55.0005 0C63.2848 0 70.0005 6.71573 70.0005 15ZM55.0005 28C62.1802 28 68.0005 22.1797 68.0005 15C68.0005 7.8203 62.1802 2 55.0005 2C47.8208 2 42.0005 7.8203 42.0005 15C42.0005 22.1797 47.8208 28 55.0005 28ZM56.001 112C68.7035 112 79.001 101.703 79.001 89C79.001 76.2975 68.7035 66 56.001 66C43.2984 66 33.001 76.2975 33.001 89C33.001 101.703 43.2984 112 56.001 112ZM128 89C128 92.866 124.866 96 121 96C117.134 96 114 92.866 114 89C114 85.134 117.134 82 121 82C124.866 82 128 85.134 128 89ZM128.3 33.5H111.61L103.264 47.9545L111.61 62.409L128.3 62.409L136.646 47.9545L128.3 33.5ZM2.00049 45H20.0005V63H2.00049V45Z"/>
</mask>
<path d="M56.001 29.9672L55.8696 27.9715L54.001 28.0945V29.9672H56.001ZM56.001 64H54.001V66H56.001V64ZM75.7447 73.6624L74.1662 74.8905L75.2872 76.3315L76.8242 75.3461L75.7447 73.6624ZM104.977 54.9216L106.057 56.6053L107.664 55.5749L106.709 53.9216L104.977 54.9216ZM100.955 47.9545L99.2229 46.9545L98.6456 47.9545L99.2229 48.9545L100.955 47.9545ZM110.455 31.5V29.5H109.3L108.723 30.5L110.455 31.5ZM129.455 31.5L131.187 30.5L130.61 29.5H129.455V31.5ZM138.955 47.9545L140.687 48.9545L141.264 47.9545L140.687 46.9545L138.955 47.9545ZM129.455 64.409V66.409H130.61L131.187 65.409L129.455 64.409ZM110.455 64.409L108.723 65.409L109.3 66.409H110.455V64.409ZM105.979 56.6555L107.711 55.6555L106.663 53.841L104.899 54.9718L105.979 56.6555ZM76.9103 75.2909L75.8309 73.6072L74.1283 74.6987L75.2388 76.389L76.9103 75.2909ZM80.9221 87L78.9284 87.1578L79.0742 89H80.9221V87ZM112.224 87V89H113.821L114.174 87.4426L112.224 87ZM112 89H114V87H112V89ZM81.001 89V87H79.001V89H81.001ZM34.1503 76.8437L35.8972 77.8176L36.6728 76.4264L35.4906 75.3591L34.1503 76.8437ZM21.0314 65L22.3716 63.5155L21.8007 63H21.0314V65ZM0.000488281 65H-1.99951V67H0.000488281V65ZM0.000488281 43V41H-1.99951V43H0.000488281ZM22.0005 43H24.0005V41H22.0005V43ZM22.0005 63.1804H20.0005V64.0693L20.6603 64.6649L22.0005 63.1804ZM35.2127 75.1083L33.8725 76.5928L35.5884 78.1419L36.8746 76.221L35.2127 75.1083ZM54.001 64.0788L54.1588 66.0726L56.001 65.9268V64.0788H54.001ZM54.001 29.9672H56.001V28.0945L54.1323 27.9715L54.001 29.9672ZM128.3 33.5L130.032 32.5L129.455 31.5H128.3V33.5ZM111.61 33.5V31.5H110.455L109.878 32.5L111.61 33.5ZM103.264 47.9545L101.532 46.9545L100.955 47.9545L101.532 48.9545L103.264 47.9545ZM111.61 62.409L109.878 63.409L110.455 64.409L111.61 64.409L111.61 62.409ZM128.3 62.409L128.3 64.409L129.455 64.409L130.032 63.409L128.3 62.409ZM136.646 47.9545L138.378 48.9545L138.955 47.9545L138.378 46.9545L136.646 47.9545ZM2.00049 45V43H0.000488281V45H2.00049ZM20.0005 45H22.0005V43H20.0005V45ZM20.0005 63V65H22.0005V63H20.0005ZM2.00049 63H0.000488281V65H2.00049V63ZM68.0005 15C68.0005 21.8875 62.6431 27.5254 55.8696 27.9715L56.1324 31.9628C64.9945 31.3792 72.0005 24.0086 72.0005 15H68.0005ZM54.001 29.9672V64H58.001V29.9672H54.001ZM56.001 66C63.3843 66 69.9546 69.4767 74.1662 74.8905L77.3233 72.4344C72.3865 66.0884 64.6707 62 56.001 62V66ZM76.8242 75.3461L106.057 56.6053L103.898 53.2379L74.6653 71.9787L76.8242 75.3461ZM106.709 53.9216L102.687 46.9545L99.2229 48.9545L103.245 55.9216L106.709 53.9216ZM102.687 48.9545L112.187 32.5L108.723 30.5L99.2229 46.9545L102.687 48.9545ZM110.455 33.5H129.455V29.5H110.455V33.5ZM127.723 32.5L137.223 48.9545L140.687 46.9545L131.187 30.5L127.723 32.5ZM137.223 46.9545L127.723 63.409L131.187 65.409L140.687 48.9545L137.223 46.9545ZM129.455 62.409H110.455V66.409H129.455V62.409ZM112.187 63.409L107.711 55.6555L104.246 57.6555L108.723 65.409L112.187 63.409ZM104.899 54.9718L75.8309 73.6072L77.9898 76.9746L107.058 58.3392L104.899 54.9718ZM75.2388 76.389C77.3014 79.5285 78.6152 83.2014 78.9284 87.1578L82.9159 86.8422C82.5481 82.1961 81.0038 77.8792 78.5819 74.1927L75.2388 76.389ZM80.9221 89H112.224V85H80.9221V89ZM114.174 87.4426C114.881 84.3256 117.672 82 121 82V78C115.763 78 111.385 81.6585 110.273 86.5574L114.174 87.4426ZM121 82C124.866 82 128 85.134 128 89H132C132 82.9249 127.076 78 121 78V82ZM128 89C128 92.866 124.866 96 121 96V100C127.076 100 132 95.0751 132 89H128ZM121 96C117.134 96 114 92.866 114 89H110C110 95.0751 114.925 100 121 100V96ZM112 87H81.001V91H112V87ZM79.001 89C79.001 101.703 68.7035 112 56.001 112V116C70.9127 116 83.001 103.912 83.001 89H79.001ZM56.001 112C43.2984 112 33.001 101.703 33.001 89H29.001C29.001 103.912 41.0893 116 56.001 116V112ZM33.001 89C33.001 84.9372 34.0527 81.126 35.8972 77.8176L32.4035 75.8697C30.2355 79.7583 29.001 84.238 29.001 89H33.001ZM35.4906 75.3591L22.3716 63.5155L19.6912 66.4845L32.8101 78.3282L35.4906 75.3591ZM21.0314 63H0.000488281V67H21.0314V63ZM2.00049 65V43H-1.99951V65H2.00049ZM0.000488281 45H22.0005V41H0.000488281V45ZM20.0005 43V63.1804H24.0005V43H20.0005ZM20.6603 64.6649L33.8725 76.5928L36.5529 73.6238L23.3407 61.6959L20.6603 64.6649ZM36.8746 76.221C40.6835 70.5324 46.9567 66.6427 54.1588 66.0726L53.8432 62.0851C45.3773 62.7552 38.0152 67.3281 33.5508 73.9956L36.8746 76.221ZM56.001 64.0788V29.9672H52.001V64.0788H56.001ZM54.1323 27.9715C47.3584 27.5259 42.0005 21.8878 42.0005 15H38.0005C38.0005 24.009 45.0071 31.3799 53.8697 31.9629L54.1323 27.9715ZM42.0005 15C42.0005 7.8203 47.8208 2 55.0005 2V-2C45.6116 -2 38.0005 5.61116 38.0005 15H42.0005ZM55.0005 2C62.1802 2 68.0005 7.8203 68.0005 15H72.0005C72.0005 5.61116 64.3893 -2 55.0005 -2V2ZM55.0005 30C63.2848 30 70.0005 23.2843 70.0005 15H66.0005C66.0005 21.0751 61.0756 26 55.0005 26V30ZM70.0005 15C70.0005 6.71573 63.2848 0 55.0005 0V4C61.0756 4 66.0005 8.92487 66.0005 15H70.0005ZM55.0005 0C46.7162 0 40.0005 6.71573 40.0005 15H44.0005C44.0005 8.92487 48.9254 4 55.0005 4V0ZM40.0005 15C40.0005 23.2843 46.7162 30 55.0005 30V26C48.9254 26 44.0005 21.0751 44.0005 15H40.0005ZM56.001 114C69.8081 114 81.001 102.807 81.001 89H77.001C77.001 100.598 67.599 110 56.001 110V114ZM81.001 89C81.001 75.1929 69.8081 64 56.001 64V68C67.599 68 77.001 77.402 77.001 89H81.001ZM56.001 64C42.1939 64 31.001 75.1929 31.001 89H35.001C35.001 77.402 44.403 68 56.001 68V64ZM31.001 89C31.001 102.807 42.1939 114 56.001 114V110C44.403 110 35.001 100.598 35.001 89H31.001ZM126 89C126 91.7614 123.762 94 121 94V98C125.971 98 130 93.9706 130 89H126ZM121 94C118.239 94 116 91.7614 116 89H112C112 93.9706 116.03 98 121 98V94ZM116 89C116 86.2386 118.239 84 121 84V80C116.03 80 112 84.0294 112 89H116ZM121 84C123.762 84 126 86.2386 126 89H130C130 84.0294 125.971 80 121 80V84ZM128.3 31.5H111.61V35.5H128.3V31.5ZM109.878 32.5L101.532 46.9545L104.996 48.9545L113.342 34.5L109.878 32.5ZM101.532 48.9545L109.878 63.409L113.342 61.409L104.996 46.9545L101.532 48.9545ZM111.61 64.409L128.3 64.409L128.3 60.409L111.61 60.409L111.61 64.409ZM130.032 63.409L138.378 48.9545L134.914 46.9545L126.568 61.409L130.032 63.409ZM138.378 46.9545L130.032 32.5L126.568 34.5L134.914 48.9545L138.378 46.9545ZM2.00049 47H20.0005V43H2.00049V47ZM18.0005 45V63H22.0005V45H18.0005ZM20.0005 61H2.00049V65H20.0005V61ZM4.00049 63V45H0.000488281V63H4.00049Z" fill="#121524" mask="url(#path-1-inside-1)"/>
</svg>
